<svg xmlns="http://www.w3.org/2000/svg" xmlns:xlink="http://www.w3.org/1999/xlink" version="1.1" x="0px" y="0px" viewBox="0 0 100 125" enable-background="new 0 0 100 100" xml:space="preserve"><g><path d="M54.027,49.841c0.009,0.012,0.019,0.016,0.035,0.016c0.026-0.002,0.04-0.004,0.052-0.004c0.398,0,0.984,1.068,1.217,1.527   c0.011,0.02,0.014,0.035,0.016,0.055c0.018,0.17,0.148,1.656,0.148,1.803c0,0.039,0.073,0.141,0.152,0.217   c0.184,0.07,0.807,0.34,0.961,0.66c0.137,0.277,0.344,1.135,0.312,1.441c0.197,0.281,2.189,1.74,2.867,1.98   c0.163,0.057,0.279,0.119,0.354,0.191c-0.031-0.094-0.037-0.193-0.043-0.27c-0.005-0.051-0.008-0.102-0.016-0.15   c-0.062-0.402-0.562-2.168-0.781-2.312c-0.314-0.047-0.752-0.891-0.924-1.252c-0.008-0.014-0.416-0.662-0.518-0.918   c-0.115-0.289-0.417-0.822-0.554-0.91c-0.21-0.131-0.568-0.438-0.722-0.617c-0.105-0.125-0.126-0.287-0.151-0.492   c-0.021-0.168-0.045-0.375-0.123-0.643l-0.021-0.072c-0.151-0.521-0.181-0.614-0.458-0.895c-0.109-0.109-0.22-0.122-0.359-0.137   c-0.181-0.02-0.408-0.044-0.591-0.328c-0.142-0.216-0.199-0.431-0.248-0.619c-0.052-0.202-0.098-0.377-0.233-0.545   c-0.231-0.29-1.052-1.23-1.379-1.604c-0.072,0.085-0.186,0.167-0.362,0.209c-0.012,0.001-0.043,0.005-0.055,0.005   c-0.236,0-0.494-0.338-0.873-0.902c0.123,0.256,0.27,0.543,0.412,0.807c0.73,1.306,0.883,1.617,0.916,1.716   c0.021,0.043,0.156,0.226,0.273,0.387c0.541,0.74,0.66,0.942,0.64,1.077C53.94,49.476,53.953,49.757,54.027,49.841z"/><path d="M92.769,33.614c0.121,1.029,0.311,3.305,0.346,3.736c0.068,0.117,0.329,0.561,0.371,0.625   c0.081,0.119,0.295,1.141,0.295,1.283c0,0.004-0.002,0.065-0.002,0.07c-0.006,0.069-0.062,0.132-0.129,0.146   c-0.046,0.052-0.109,0.093-0.213,0.093c-0.18,0-0.408-0.143-0.475-0.188c-0.084-0.056-0.109-0.166-0.186-0.61   c-0.029-0.172-0.064-0.367-0.091-0.44c-0.071-0.191-0.164-0.388-0.229-0.489c-0.041,0.042-0.091,0.079-0.148,0.124   c-0.169,0.128-0.38,0.288-0.398,0.57c-0.027,0.368,0.268,0.865,0.871,1.479c1.814,1.84,2.225,4.934,2.225,5.427   c0,0.124,0.007,0.281,0.014,0.452c0.014,0.301,0.027,0.643,0.012,0.93c-0.006,0.117-0.004,0.254,0,0.396   c0.005,0.426,0.014,0.869-0.188,1.073c-0.137,0.134-0.273,0.164-0.36,0.164c-0.14,0-0.232-0.065-0.251-0.079   c-0.019-0.012-0.032-0.029-0.042-0.049l-0.05-0.099c-0.046-0.095-0.103-0.3-0.15-0.483l-0.008-0.037   c-0.022-0.086-0.208-0.475-0.306-0.571c-0.045-0.044-0.09-0.104-0.14-0.171c-0.092-0.123-0.196-0.26-0.356-0.377   c-0.076-0.054-0.146-0.082-0.208-0.084c-0.002,2.639-0.023,2.706-0.034,2.734c0.004,0.009,0.032,0.113,0.139,0.328   c0.067,0.108,0.843,0.904,1.373,1.434c0.015,0.016,0.027,0.033,0.035,0.053c0.014,0.045,0.15,0.432,0.176,0.561   c0.01,0.049,0.085,0.24,0.141,0.379c0.085,0.223,0.14,0.361,0.153,0.43c0.009,0.035,0.04,0.109,0.079,0.209   c0.141,0.355,0.268,0.693,0.268,0.924c0,0.383-0.122,0.516-0.467,0.516c-0.194,0-0.289-0.041-0.383-0.082   c-0.035-0.016-0.073-0.033-0.123-0.047c-0.15-0.043-0.282-0.223-0.456-0.475c-0.055-0.082-0.112-0.168-0.146-0.197   c-0.104-0.104-0.142-0.33-0.19-0.691c-0.022-0.146-0.043-0.301-0.065-0.373c-0.062-0.186-0.041-0.406-0.022-0.586   c0.006-0.066,0.015-0.127,0.015-0.174c0-0.094-0.146-0.299-0.43-0.611c-0.225-0.246-0.65-0.792-0.715-0.95   c-0.031-0.079-0.031-0.228-0.01-0.7c0.008-0.199,0.021-0.498,0.008-0.559c-0.023-0.043-0.032-0.129-0.046-0.303   c-0.014-0.18-0.032-0.426-0.101-0.629c-0.121-0.357-0.191-0.553-0.363-0.943c-0.081-0.188-0.14-0.355-0.195-0.506   c-0.057-0.164-0.107-0.307-0.168-0.416c-0.047-0.085-0.104-0.246-0.16-0.42c-0.033,0.13-0.081,0.241-0.145,0.307   c-0.223,0.22-0.643,0.314-0.983,0.206c-0.298-0.091-0.261-0.422-0.228-0.743c0.025-0.223,0.053-0.475,0.005-0.717   c-0.073-0.374-0.198-0.414-0.31-0.451c-0.055-0.016-0.115-0.035-0.164-0.086c-0.031-0.027-0.072-0.076-0.119-0.129   c-0.086-0.102-0.231-0.271-0.311-0.311c-0.107-0.054-0.199-0.186-0.308-0.339c-0.081-0.118-0.175-0.253-0.254-0.312   c-0.146-0.109-0.286-0.338-0.419-0.558c-0.068-0.114-0.138-0.228-0.197-0.305c-0.038-0.05-0.094-0.12-0.14-0.172   c-0.114,0.386-0.96,1.558-1.14,1.694c-0.018,0.028-0.006,0.073,0.004,0.102c0.019,0.064,0.043,0.146,0.043,0.248   c0,0.069,0.002,0.106,0.006,0.146c0.005,0.084,0.01,0.17-0.006,0.523c-0.018,0.355-0.289,0.965-0.55,1.553   c-0.14,0.313-0.271,0.609-0.341,0.816c-0.186,0.558-0.418,1.121-0.688,1.772l-0.051,0.124c-0.153,0.373-0.303,0.494-0.399,0.576   c-0.073,0.059-0.085,0.068-0.058,0.256c0.012,0.088,0.033,0.236,0.062,0.422c0.148,0.98,0.426,2.801,0.405,3.283   c-0.023,0.531-0.093,1.092-0.15,1.439c-0.009,0.059-0.027,0.086-0.041,0.125c0.142-0.318,0.412-0.588,0.452-0.627   c0.027-0.029,0.064-0.041,0.104-0.041c0.404,0,0.727,0.623,0.768,0.812c0.018,0.078,0.073,0.166,0.128,0.25   c0.04,0.066,0.079,0.129,0.104,0.186c0.057,0.135,0.04,0.316,0.023,0.549l-0.02,0.303c-0.01,0.201-0.018,0.266-0.117,0.482   c-0.131,0.281-0.412,0.408-0.688,0.516c-0.051,0.018-0.1,0.029-0.146,0.029c-0.252,0-0.318-0.258-0.352-0.381l-0.01-0.041   c-0.01-0.035-0.086-0.131-0.135-0.193c-0.076-0.096-0.156-0.197-0.191-0.289c-0.047-0.119-0.038-0.361-0.021-0.746   c0.006-0.154,0.01-0.312,0.01-0.447c0-0.098,0.031-0.195,0.069-0.291c-0.038,0.07-0.086,0.127-0.155,0.193   c-0.08,0.074-0.188,0.176-0.35,0.391c-0.151,0.195-0.161,0.338-0.168,0.441c-0.006,0.08-0.02,0.273-0.234,0.273   c-0.055,0-0.129-0.016-0.246-0.051c-0.422-0.121-0.748-0.963-1.046-1.816c-0.056-0.162-0.122-0.344-0.144-0.381   c-0.027-0.043-0.133-0.119-0.229-0.186c-0.237-0.17-0.565-0.402-0.622-0.75c-0.072-0.426-0.119-0.705-0.299-0.973   c-0.096-0.145-0.147-0.277-0.198-0.406c-0.059-0.146-0.113-0.287-0.237-0.445c-0.136-0.176-0.223-0.428-0.308-0.668   c-0.065-0.188-0.142-0.4-0.21-0.464c-0.15-0.131-0.346-0.658-0.697-1.718c-0.074-0.217-0.135-0.406-0.178-0.523   c-0.053-0.141-0.078-0.281-0.099-0.394c-0.014-0.079-0.032-0.188-0.055-0.216c0.006,0.008-0.05,0.02-0.19,0.115   c-0.276,0.188-0.522,0.274-0.779,0.274c-0.18,0-0.345-0.042-0.503-0.083l-0.087-0.021c-0.447-0.113-0.692-0.49-0.703-0.506   c-0.008-0.016-0.016-0.03-0.02-0.047l-0.139-0.629c-0.074-0.084-0.194-0.197-0.271-0.219c-0.065-0.019-0.146-0.055-0.238-0.093   c-0.146-0.062-0.312-0.134-0.448-0.147l-0.05-0.006c-0.215-0.019-0.252-0.051-0.384-0.237l-0.063-0.087   c-0.176-0.242-0.46-0.502-0.576-0.555c-0.131,0.125-0.525,0.262-1.566,0.592c-0.373,0.119-0.727,0.232-0.92,0.309   c-0.444,0.174-1.747,0.238-2.463,0.238c-0.34,0-0.557-0.014-0.647-0.038c-0.164-0.045-0.31-0.249-0.474-0.483   c-0.111-0.158-0.318-0.453-0.412-0.453c-0.326,0.123-1.177,0.451-1.749,0.451c-0.384,0-0.643-0.092-0.868-0.175   c-0.104-0.036-0.206-0.075-0.314-0.099c-0.426-0.092-0.814-0.402-0.924-0.498c-0.107-0.092-0.217-0.3-0.346-0.54   c-0.1-0.193-0.218-0.413-0.302-0.495c-0.193-0.197-0.298-0.283-0.546-0.252c-0.305,0.021-0.768,0.186-0.797,0.388   c-0.006,0.178,0.59,0.995,1.145,1.649l0.488,0.562c0.008,0.012,0.016,0.021,0.021,0.033l0.241,0.494   c0.133-0.176,0.356-0.331,0.725-0.282c0.158,0.019,0.281,0.097,0.359,0.225c0.167,0.265,0.098,0.692,0.035,0.938l0.234,0.014   c0.223-0.037,0.648-0.103,0.715-0.119c0.049-0.013,0.268-0.104,0.466-0.191c0.061-0.114,0.231-0.408,0.636-0.889   c0.436-0.519,0.543-0.619,0.672-0.619c0.092,0,0.199,0.053,0.199,0.297c0.013,0.141,0.476,0.759,0.913,1.266l0.396,0.088   l0.796,0.096c0.021,0.002,0.043,0.01,0.062,0.023c0.041,0.028,0.408,0.277,0.52,0.559c0.104,0.257-0.131,1.43-0.238,1.924   c-0.012,0.052-0.049,0.093-0.099,0.109c-0.049,0.014-0.106,0.002-0.146-0.033c-0.016-0.014-0.062-0.047-0.1-0.047   c-0.057,0-0.164,0.115-0.217,0.547c-0.064,0.521-0.034,0.633-0.03,0.643c0.011,0.039,0.011,0.084-0.008,0.119   c-0.017,0.035-0.046,0.066-0.085,0.076c-0.086,0.029-0.287,0.092-0.375,0.346c-0.117,0.322-0.333,0.725-0.559,0.801   c-0.148,0.049-0.233,0.088-0.279,0.113c-0.012,0.049-0.02,0.154-0.025,0.227c-0.02,0.207-0.029,0.342-0.09,0.418   c-0.137,0.184-0.87,0.188-0.877,0.188c-0.047,0-0.079-0.002-0.102-0.004c-0.133,0.053-0.609,0.416-0.87,0.613l-0.192,0.146   c-0.02,0.016-0.038,0.029-0.052,0.039c0.062,0.074,0.121,0.193,0.111,0.412c-0.019,0.355-0.596,0.645-1.26,0.975   c-0.392,0.193-0.833,0.416-0.92,0.562c-0.181,0.311-1.497,0.859-3.907,1.635c-0.297,0.092-0.482,0.064-0.587-0.023   c0.03,0.117-0.022,0.219-0.058,0.289c-0.01,0.018-0.024,0.049-0.027,0.059c0.145,0.24-0.068,0.422-0.268,0.559   c0.205,0.217,1.071,0.717,1.321,0.717c0.304-0.031,4.378-1.656,4.743-1.893c0.053-0.031,0.117-0.031,0.166,0.006   c0.443,0.324-0.621,3.832-1.178,5.107c-0.77,1.766-4.255,5.07-5.053,5.443c-0.443,0.207-0.693,0.688-1.043,1.35   c-0.227,0.43-0.484,0.918-0.859,1.471c-0.734,1.088-0.904,1.576-0.943,1.73c0.109,0.117,0.332,0.377,0.332,0.615   c0,0.146-0.025,0.346-0.049,0.553c-0.02,0.156-0.039,0.316-0.051,0.463c-0.012,0.174,0.418,0.779,0.822,1.242   c0.02,0.023,0.031,0.051,0.035,0.08c0.268,2.33-0.557,3.598-0.813,3.932c-0.337,0.436-0.411,0.471-0.716,0.494l-0.051,0.004   c-0.124,0.008-0.383,0.168-0.744,0.389c-0.342,0.207-0.809,0.494-1.432,0.818c-0.586,0.311-0.87,0.523-0.916,0.688   c-0.033,0.105,0.027,0.221,0.145,0.432c0.031,0.055,0.066,0.113,0.098,0.18c0.329,0.633,0.391,1.396,0.36,1.609   c-0.021,0.15-0.175,0.234-1.171,0.646c-0.386,0.16-0.9,0.373-1.064,0.484c-0.064,0.645-0.654,1.639-1.234,2.059   c-2.118,1.932-3.918,1.988-4.119,1.988c-0.008,0-1.016,0-2.336,0.07c-0.32,0.047-0.629,0.07-0.902,0.07   c-0.717,0-1.238-0.16-1.553-0.479c-0.334-0.342-0.326-0.756-0.324-0.893c0-0.162-0.184-0.527-1.41-1.426   c-1.328-0.969-2.124-3.076-2.168-3.273l-0.021-0.105c-0.039-0.191-0.089-0.43-0.176-0.553c-0.045-0.062-0.225-0.26-0.398-0.449   c-0.421-0.457-0.565-0.627-0.598-0.709c-0.047-0.117-0.143-0.35-0.908-1.26c-0.84-0.994,0.047-3.342,0.395-3.744   c0.27-0.316,0.385-0.881,0.406-1.074c0.008-0.102-0.209-0.512-0.312-0.709c-0.093-0.178-0.167-0.316-0.196-0.406   c-0.074-0.215-0.031-0.662-0.013-0.807l-0.572-1.262l-1.173-2.176c-0.221-0.271-0.886-1.082-1.135-1.273   c-0.374-0.289-0.555-1.107-0.522-1.293c0.015-0.096,0.108-0.275,0.255-0.559c0.064-0.121,0.15-0.287,0.164-0.324   c-0.004-0.166,0.02-0.695,0.246-1.488c0.135-0.467-0.129-1.035-0.762-1.641l-0.035-0.031c-0.036,0.012-0.083,0.016-0.142,0.02   c-0.185,0.02-0.505,0.053-1.059,0.023c-0.992-0.047-1.258-0.578-1.565-1.195l-0.104-0.209c-0.139-0.266-0.64-0.584-2.249-0.584   l-0.22,0.002c-0.353,0.082-1.992,0.332-2.5,0.332c-0.085,0-0.137-0.004-0.177-0.021c-0.018-0.006-1.962-0.721-2.849-0.629   c-0.03,0.004-0.058,0.006-0.088,0.006c-0.683,0-1.495-0.885-2.033-1.469c-0.183-0.197-0.373-0.404-0.442-0.443   c-0.373-0.199-1.27-1.795-1.345-2.02c-0.044-0.131-0.077-0.385-0.106-0.627c-0.021-0.148-0.047-0.352-0.063-0.395   c-0.009-0.023-0.021-0.049-0.035-0.074c-0.06-0.119-0.153-0.303-0.194-0.678c-0.023-0.205-0.069-0.264-0.15-0.371   c-0.074-0.094-0.162-0.213-0.257-0.447c-0.076-0.193-0.183-0.357-0.295-0.531c-0.158-0.246-0.322-0.504-0.398-0.84   c-0.128-0.559-0.175-2.021-0.175-2.24c0-0.213,0.381-0.648,0.629-0.907c0.029-0.104,0.129-0.413,0.3-0.688   c0.145-0.238,0.364-1.506,0.469-2.25c0.045-0.313,0.026-0.701,0-1.074c-0.028-0.396,0.267-0.751,0.278-0.765l0.662-0.786   l1.021-0.994v-0.529c0-0.042,0.019-0.082,0.049-0.109l0.613-0.541l0.586-0.357l0.736-0.691c0.021-0.021,0.049-0.035,0.079-0.039   l0.712-0.099c0.629-0.233,1.371-0.598,1.468-0.772c0.112-2.097,2.233-2.741,2.53-2.82l1.203-0.963   c0.047-0.041,0.115-0.043,0.168-0.012l1.072,0.643c0.117,0.004,0.495,0.018,0.578,0.004c0.04-0.014,0.123-0.01,0.281,0.002   c0.229,0.016,0.589,0.033,0.785-0.005c1.031-0.194,2.324-0.423,2.668-0.423c0.035,0,0.066,0.002,0.09,0.008   c0.17,0.037,1.992,0.303,2.931,0.439l0.837-0.002c0.242,0,0.57,0.222,0.635,0.508c0.053,0.232-0.242,1.244-0.37,1.668l-0.118,0.42   v0.212c0.17,0.318,0.433,0.665,0.553,0.675c0.306,0.025,1.73,0.712,2.014,0.852c0.525,0.347,0.525,0.434,0.525,0.5   c0,0.243,0.229,0.462,0.635,0.596c0.463,0.153,0.859,0.418,1.121,0.595c0.104,0.071,0.225,0.15,0.261,0.159   c0.055-0.019,0.418-0.248,0.435-0.502c0.099-0.585,0.453-1.055,1.033-1.369c0.041-0.022,0.09-0.033,0.151-0.033   c0.478,0,2.017,0.753,2.19,0.839L46.93,43.2c0.007,0,0.843,0.246,1.472,0.246c0.318,0,0.525-0.066,0.584-0.182   c0.165-0.332,0.525-0.506,1.041-0.506c0.221,0,0.388,0.033,0.396,0.033l1.073,0.392h0.624l0.598-0.342l0.93-3.672   c-0.049-0.017-0.104-0.042-0.164-0.079c-0.078-0.049-0.365-0.108-0.916-0.108c-0.123,0-0.137,0.027-0.197,0.137   c-0.073,0.136-0.186,0.342-0.564,0.465c-0.108,0.034-0.213,0.052-0.314,0.052c-0.353,0-0.585-0.214-0.754-0.371   c-0.067-0.062-0.134-0.123-0.184-0.15l-0.09-0.044c-0.164-0.085-0.148-0.088-0.296-0.04c-0.064,0.022-0.095,0.058-0.142,0.111   c-0.062,0.074-0.148,0.172-0.332,0.223c-0.095,0.025-0.139,0.034-0.177,0.034c-0.063,0-0.144-0.022-0.182-0.137   c-0.005-0.017-0.01-0.028-0.04-0.052c-0.133-0.102-0.248-0.17-0.575-0.136c-0.37,0.038-0.496,0.002-0.829-0.092l-0.089-0.022   c-0.318-0.086-0.347-0.232-0.355-0.447c-0.004-0.115-0.009-0.257-0.092-0.47c-0.148-0.384-0.175-0.475-0.098-0.58   c-0.005-0.163,0.103-0.278,0.181-0.366c0.01-0.011,0.022-0.024,0.035-0.039c-0.053-0.019-0.118-0.048-0.203-0.1   c-0.169-0.099-0.236-0.141-0.206-0.254c0.016-0.055,0.078-0.1,0.138-0.109c0.018-0.082,0.08-0.203,0.312-0.203   c0.052,0,0.109,0.008,0.158,0.013c0.028,0.004,0.055,0.007,0.072,0.007c0.048-0.012,0.236-0.038,0.326-0.051l0.405-0.377   l-0.05-0.124l-0.388,0.202c-0.271,0.127-0.609,0.275-0.722,0.275c-0.014,0-0.033-0.002-0.045-0.007   c-0.049-0.013-0.092-0.045-0.116-0.089c-0.035-0.064-0.032-0.152-0.017-0.234c-0.157-0.119-0.32-0.238-0.357-0.258   c0.011,0.006,0,0.015-0.02,0.006c-0.12,0-0.353,0.03-0.506,0.049l-0.074,0.01c0.004,0.004,0.004,0.01,0.006,0.016   c0.014,0.053,0.027,0.106,0.009,0.167c-0.044,0.13-0.133,0.21-0.238,0.21c-0.03,0-0.071-0.008-0.114-0.033   c-0.014,0.016-0.04,0.039-0.058,0.057c-0.083,0.074-0.159,0.148-0.259,0.148c-0.027,0-0.074-0.014-0.1-0.027   c-0.008-0.005-0.016-0.011-0.023-0.016l-0.025,0.18c0.006,0.033,0.03,0.094,0.074,0.132c0.211,0.175,0.076,0.35,0.032,0.407   c-0.019,0.025-0.011,0.064,0.015,0.116c0.035,0.009,0.072,0.026,0.112,0.048c0.116,0.064,0.146,0.129,0.157,0.21   c0.004,0.022,0.008,0.058,0.115,0.164c0.101,0.103,0.152,0.208,0.152,0.313c0,0.148-0.098,0.241-0.152,0.293   c-0.044,0.115-0.185,0.119-0.277,0.123c-0.031,0-0.087,0.002-0.104,0.008l-0.043,0.017c-0.074,0.027-0.098,0.038-0.121,0.078   c0.006,0.001,0.021,0.054,0.034,0.095c0.035,0.134,0.093,0.336,0.057,0.613c-0.03,0.228-0.042,0.315-0.177,0.315   c-0.069,0-0.139-0.081-0.152-0.149c-0.003-0.01-0.01-0.041-0.017-0.062c-0.171-0.021-0.521-0.079-0.777-0.189   c-0.216-0.094-0.263-0.25-0.304-0.39c-0.023-0.083-0.047-0.163-0.109-0.251c-0.15-0.207-0.119-0.402-0.096-0.557   c0.014-0.084,0.026-0.162,0.014-0.243c-0.016-0.132-0.062-0.199-0.125-0.296c-0.043-0.067-0.099-0.146-0.141-0.26   c-0.049-0.122-0.076-0.166-0.113-0.224c-0.033-0.049-0.068-0.104-0.121-0.205c-0.024-0.049-0.043-0.095-0.06-0.136   c-0.058-0.133-0.095-0.221-0.337-0.399c-0.105-0.077-0.162-0.167-0.186-0.259c-0.029,0.139-0.113,0.35-0.346,0.458   c-0.061,0.028-0.115,0.042-0.166,0.042c-0.231,0-0.27-0.236-0.286-0.338c-0.005-0.023-0.009-0.046-0.014-0.06   c-0.011-0.011-0.071-0.073-0.222-0.073c-0.065,0-0.084,0.003-0.088,0.004c-0.016,0.01-0.035,0.021-0.064,0.031   c-0.007,0.079,0.027,0.266,0.051,0.342c0.014,0.03,0.1,0.17,0.17,0.279c0.092,0.137,0.082,0.278-0.023,0.35   c-0.004,0.008-0.042,0.06-0.096,0.129c-0.258,0.344-0.555,0.721-0.812,0.869c-0.178,0.102-0.328,0.09-0.417-0.018   c-0.104-0.127-0.072-0.336-0.06-0.396c0.004-0.014,0.007-0.023,0.014-0.037c0.064-0.127,0.135-0.289,0.148-0.345   c-0.005-0.068,0.021-0.161,0.106-0.398c0.028-0.08,0.056-0.151,0.061-0.181c0-0.035-0.038-0.252-0.102-0.341   c-0.03-0.04-0.062-0.089-0.095-0.142c-0.066-0.104-0.143-0.221-0.222-0.3c-0.137-0.138-0.205-0.243-0.29-0.454   c-0.04-0.102-0.076-0.121-0.148-0.164c-0.023-0.014-0.048-0.027-0.072-0.043l-0.051-0.035c-0.102-0.069-0.227-0.156-0.4-0.227   c-0.211-0.088-0.346-0.254-0.42-0.343c-0.014-0.017-0.025-0.031-0.034-0.039l-0.031-0.03c-0.224-0.204-0.534-0.514-0.646-0.836   c-0.056-0.154-0.082-0.318-0.106-0.477c-0.039-0.229-0.072-0.445-0.189-0.607c-0.091-0.133-0.131-0.14-0.209-0.121   c-0.041,0.008-0.091,0.018-0.152,0.018c-0.004,0-0.041-0.001-0.045-0.002H37.47c-0.153,0-0.367,0.115-0.594,0.236l-0.11,0.061   c-0.405,0.213-0.749,0.248-1.005,0.109c-0.188-0.101-0.428-0.111-0.762-0.125l-0.113-0.005c-0.258-0.015-0.273-0.005-0.375,0.108   c-0.024,0.025-0.052,0.056-0.083,0.088c-0.037,0.038-0.101,0.104-0.174,0.186c-0.425,0.457-0.825,0.873-1.049,0.938   c-0.298,0.086-0.476,0.102-0.647,0.057c-0.031-0.002-0.035-0.001-0.061,0.018c-0.035,0.025-0.088,0.061-0.16,0.061   c-0.031,0.015-0.309,0.203-0.669,0.563c-0.159,0.159-0.112,0.389-0.042,0.651c0.037,0.143,0.066,0.242,0.016,0.332   c-0.022,0.033-0.077,0.076-0.115,0.086c-0.039,0.017-0.15,0.146-0.211,0.216c-0.134,0.157-0.215,0.249-0.316,0.264   c-0.054,0.01-0.129,0.042-0.216,0.082c-0.052,0.022-0.112,0.049-0.175,0.075c-0.071,0.027-0.15,0.07-0.234,0.113   c-0.143,0.072-0.289,0.148-0.428,0.186c-0.211,0.061-0.546,0.04-0.828,0.005c-0.268-0.03-0.713-0.103-0.838-0.123l-0.851,0.248   c-0.052,0.011-0.104,0-0.142-0.035c-0.039-0.036-0.055-0.09-0.043-0.14c0.001-0.004,0.07-0.297,0.052-0.584   c-0.004-0.061-0.009-0.101-0.015-0.126c-0.129-0.017-0.472-0.066-0.688-0.128l-0.157-0.045c-0.106-0.033-0.142-0.042-0.314-0.082   c-0.12-0.027-0.208-0.048-0.219-0.158c-0.007-0.062,0.044-0.133,0.102-0.158c0.003-0.152,0.101-0.318,0.167-0.43   c0.014-0.023,0.024-0.043,0.029-0.055c0.009-0.027,0.066-0.166,0.115-0.287c-0.035-0.009-0.062-0.031-0.082-0.061   c-0.044-0.068-0.188-0.306-0.188-0.466c0-0.243,0.315-0.561,0.317-0.564l0.06-0.06c0.331-0.336,0.659-0.656,0.801-0.736   c0.106-0.083,0.35-0.759,0.35-0.889c-0.014-0.084,0.006-0.18,0.023-0.281c0.016-0.072,0.03-0.15,0.03-0.229   c0-0.146,0.024-0.209,0.107-0.273c0.014-0.012,0.027-0.021,0.05-0.051c0.112-0.158,0.377-0.207,0.59-0.245l0.087-0.017   c0.127-0.025,0.224-0.021,0.356-0.012c0.072,0.003,0.155,0.01,0.262,0.01c0.36,0,0.539,0.162,0.593,0.321   c0.188,0.087,1.02,0.276,1.786,0.423c0.065-0.045,0.163-0.119,0.213-0.178c0.048-0.056,0.107-0.158,0.183-0.289   c0.055-0.094,0.117-0.2,0.191-0.319l0.152-0.24c0.045-0.071,0.061-0.093,0.081-0.134c0.032-0.074,0.178-0.662,0.186-0.734   c0-0.012-0.008-0.055-0.018-0.109c-0.011-0.076-0.027-0.171-0.036-0.271c-0.018-0.178-0.021-0.201-0.114-0.391   c-0.052-0.103-0.052-0.103-0.14-0.14c-0.053-0.023-0.122-0.054-0.224-0.11c-0.1-0.056-0.136-0.068-0.15-0.073   c-0.058-0.02-0.079-0.046-0.106-0.081c-0.012-0.016-0.033-0.045-0.079-0.1c-0.06-0.072-0.12-0.156-0.103-0.254   c0.018-0.096,0.094-0.14,0.154-0.174c0.055-0.03,0.12-0.068,0.189-0.148c0.178-0.21,0.4-0.233,0.551-0.233   c0.061,0,0.121,0.005,0.181,0.008c0.052,0.005,0.104,0.009,0.153,0.009c0.164,0,0.275,0.102,0.363,0.2   c0.002-0.013,0.003-0.026,0.006-0.04c0.057-0.358,0.273-0.434,0.445-0.434c0.086,0,0.186,0.019,0.314,0.06   c0.143,0.044,0.271,0.015,0.473-0.034c0.131-0.032,0.297-0.072,0.511-0.101c0.035-0.005,0.065-0.009,0.091-0.013   c0.018-0.033,0.045-0.059,0.081-0.072c0,0,0.13-0.05,0.257-0.145c0.058-0.043,0.022-0.166,0.022-0.168   c-0.014-0.044-0.005-0.09,0.019-0.129c-0.009,0.004-0.015,0.008-0.023,0.012c-0.066,0.029-0.148,0.063-0.252,0.113   c-0.226,0.107-0.334,0.145-0.424,0.145c-0.061,0-0.102-0.018-0.137-0.031l-0.041-0.014c-0.041-0.012-0.102-0.019-0.172-0.027   c-0.15-0.018-0.355-0.045-0.572-0.117c-0.1-0.033-0.119-0.047-0.193-0.024c-0.062,0.015-0.146,0.038-0.373,0.008   c-0.188-0.024-0.411-0.005-0.594,0.009c-0.209,0.018-0.363,0.057-0.481-0.039c-0.055-0.043-0.079-0.108-0.071-0.18   c0.023-0.201,0.356-0.463,0.58-0.566c0.248-0.115,0.297-0.131,0.412-0.164c0.038-0.015,0.084-0.062,0.125-0.119   c-0.24-0.132-0.261-0.209-0.27-0.246c-0.035-0.135,0.032-0.195,0.318-0.45c0.116-0.103,0.274-0.245,0.493-0.448   c0.306-0.283,0.372-0.312,0.445-0.312c0.05,0,0.104,0.028,0.132,0.067c0.008,0.012,0.016,0.025,0.019,0.037   c0.042-0.056,0.091-0.119,0.153-0.188c0.096-0.104,0.104-0.141,0.104-0.143c-0.002-0.008-0.007-0.019-0.008-0.031   c-0.02-0.018-0.059-0.046-0.084-0.061c-0.016-0.012-0.03-0.024-0.042-0.041c-0.174-0.239-0.174-0.312-0.174-0.344v-0.386   c0-0.117,0.034-0.2,0.062-0.268c0.025-0.062,0.036-0.093,0.031-0.14c-0.016-0.141,0.021-0.263,0.054-0.383   c0.014-0.051,0.03-0.102,0.039-0.158c0.04-0.191,0.202-0.312,0.308-0.393c0.026-0.02,0.049-0.035,0.064-0.052   c0.029-0.028,0.699-0.563,0.827-0.59c0.213-0.048,0.399-0.073,0.524-0.073c0.055,0,0.222,0,0.249,0.143   c0.012,0.062-0.006,0.151-0.153,0.211c-0.062,0.025-0.158,0.148-0.191,0.229c0.024-0.002,0.041-0.002,0.058-0.002   c0.2,0,0.277,0.1,0.306,0.16c0.061,0.126,0.014,0.293-0.131,0.471c-0.052,0.062-0.145,0.151-0.248,0.25   c-0.098,0.092-0.26,0.244-0.334,0.342c0.229,0.144,0.229,0.521,0.229,1.062c0,0.254,0.008,0.414,0.016,0.547   c0.006,0.158,0.013,0.279,0.002,0.473c-0.006,0.113,0.002,0.141,0.004,0.146c0.052,0.027,0.111,0.074,0.165,0.185   c0.044,0.087,0.112,0.224,0.015,0.315c-0.02,0.194-0.195,0.576-0.364,0.781c-0.093,0.115-0.178,0.171-0.269,0.219h0.928   c0.16,0,0.262-0.078,0.303-0.119l0.048-0.324c0.005-0.031,0.019-0.059,0.04-0.08l0.404-0.424c0.028-0.023,0.137-0.096,0.385-0.29   c0.197-0.156,0.34-0.169,0.491-0.169l0.108,0.001c0.056,0,0.117-0.002,0.193-0.009c0.15-0.017,0.326-0.024,0.535-0.024   c0.102,0,0.191,0.003,0.258,0.003l0.086,0.002c0.059,0,0.148-0.027,0.248-0.076c0.023-0.045,0.16-0.424,0.176-0.519   c0.018-0.099,0.018-0.26,0.018-0.528c0-0.236,0-0.236,0.021-0.461l0.017-0.16c0.034-0.365,0.208-0.412,0.497-0.49   c0.131-0.036,0.295-0.081,0.516-0.164c0.252-0.099,0.37-0.133,0.449-0.133c0.084,0,0.132,0.036,0.158,0.066   c0.059,0.07,0.045,0.153,0.033,0.221c-0.011,0.06-0.02,0.12,0.006,0.181c0.137,0.31-0.014,0.501-0.104,0.616   c-0.019,0.023-0.036,0.045-0.049,0.067c-0.019,0.03-0.032,0.065-0.049,0.103c-0.054,0.127-0.126,0.297-0.311,0.465   c-0.1,0.092-0.119,0.132-0.154,0.201c-0.032,0.068-0.079,0.16-0.196,0.314c-0.004,0.006-0.009,0.01-0.012,0.015   c0.071,0.024,0.158,0.067,0.222,0.166c0.071,0.112,0.111,0.124,0.179,0.124c0.051,0,0.111-0.01,0.182-0.024   c0.258-0.046,0.332-0.016,0.455,0.026c0.043,0.014,0.094,0.031,0.166,0.051c0.106,0.027,0.186,0.057,0.251,0.078   c0.049,0.019,0.099,0.037,0.118,0.037c0.064-0.029,0.152-0.018,0.237,0.001c0.066,0.015,0.147,0.036,0.263,0.024   c0.12-0.008,0.154-0.038,0.242-0.121c0.053-0.049,0.112-0.105,0.2-0.165c0.142-0.099,0.218-0.12,0.347-0.106   c0.072,0.004,0.197,0.002,0.354-0.027c0.422-0.08,0.553,0.035,0.741,0.178c0.073,0.053,0.159,0.118,0.28,0.189   c0.014,0.008,0.024,0.015,0.035,0.021c0.009-0.047,0.025-0.09,0.062-0.128c0.069-0.069,0.179-0.125,0.317-0.196   c0.086-0.045,0.183-0.096,0.28-0.154c0.007-0.006,0.014-0.01,0.019-0.014c-0.037-0.061-0.074-0.129-0.088-0.227   c-0.043-0.277,0.061-0.574,0.174-0.732c0.13-0.183,0.8-0.447,0.968-0.465c0.007-0.001,0.037-0.002,0.042-0.002   c0.067,0,0.123,0.018,0.17,0.041c0.029-0.102,0.062-0.235,0.062-0.298c0-0.057-0.016-0.087-0.035-0.123   c-0.012-0.024-0.024-0.048-0.03-0.07c-0.065-0.194,0.421-0.472,0.716-0.618c0.082-0.042,0.769-0.296,0.957-0.363   c-0.041,0.002-0.082,0.006-0.125,0.008c-0.273,0.017-0.615,0.037-0.887,0.037c-0.196,0-0.336-0.012-0.428-0.033l-0.137-0.031   c-0.193-0.041-0.332-0.071-0.408-0.193c-0.068-0.105-0.048-0.236-0.024-0.338c0.042-0.178,0.017-0.229-0.058-0.383   c-0.029-0.062-0.064-0.135-0.101-0.23c-0.112-0.287-0.068-0.504-0.028-0.717c0.014-0.062,0.028-0.129,0.036-0.2   c0.036-0.276,0.228-0.403,0.36-0.444l0.209-0.24c0.008-0.012,0.019-0.02,0.029-0.026l0.276-0.183   c0.048-0.034,0.391-0.248,0.481-0.304c0.076-0.097,0.163-0.216,0.18-0.256c0.01-0.022,0-0.048-0.006-0.054   c-0.055-0.027-0.123-0.057-0.262-0.057c-0.102,0-0.353,0.018-0.469,0.179c-0.031,0.042-0.058,0.083-0.085,0.124   c-0.1,0.154-0.215,0.33-0.548,0.602c-0.213,0.174-0.365,0.283-0.5,0.379c-0.119,0.086-0.225,0.16-0.344,0.264   c-0.059,0.049-0.069,0.091-0.091,0.207c-0.036,0.192-0.089,0.482-0.523,0.94c-0.026,0.028-0.05,0.054-0.072,0.077   c0.175,0.012,0.251,0.117,0.282,0.182c0.023,0.051,0.044,0.088,0.059,0.115c0.082,0.154,0.068,0.209-0.023,0.359   c-0.033,0.055-0.081,0.135-0.148,0.264c-0.161,0.309-0.256,0.387-0.383,0.469c-0.06,0.037-0.115,0.074-0.205,0.182   c-0.113,0.139-0.229,0.398-0.341,0.649c-0.129,0.293-0.251,0.567-0.397,0.733c-0.113,0.131-0.25,0.198-0.406,0.198   c-0.109,0-0.211-0.034-0.289-0.062c-0.045-0.015-0.091-0.031-0.113-0.031c-0.014,0.014-0.073,0.109-0.111,0.174   c-0.082,0.13-0.176,0.279-0.312,0.359c-0.207,0.12-0.398,0.131-0.567,0.141c-0.042,0.002-0.079,0.003-0.118,0.006   c-0.242,0.032-0.415-0.09-0.562-0.324c-0.124-0.203-0.004-0.351,0.056-0.422c0.014-0.014,0.025-0.029,0.035-0.045   c0.069-0.115,0.223-0.115,0.286-0.115c0.04,0,0.08,0.002,0.116,0.004c0.012-0.027,0.02-0.049,0.02-0.09   c0-0.203-0.082-1.616-0.17-1.848c-0.004,0.002-0.006,0.004-0.008,0.006c-0.035,0.035-0.076,0.072-0.126,0.098   c-0.147,0.074-0.503,0.252-1.038,0.327c-0.295,0.042-0.512-0.016-0.65-0.169c-0.17-0.184-0.225-0.492-0.18-1.001   c0.064-0.722,0.631-1.262,0.934-1.552c0.065-0.062,0.119-0.11,0.147-0.148c0.179-0.215,0.743-0.381,1.329-0.527   c0.092-0.023,0.596-0.318,3.275-2.49c0.1-0.079,0.158-0.126,0.168-0.133c0.024-0.02,0.08-0.052,0.15-0.092   c0.109-0.064,0.316-0.184,0.377-0.254c0.131-0.152,0.295-0.233,0.547-0.35c0.096-0.045,0.193-0.102,0.281-0.152   c0.182-0.102,0.281-0.156,0.369-0.156c0.023,0,0.063,0.003,0.109,0.006c0.061,0.006,0.139,0.014,0.215,0.014   c0.107,0,0.159-0.014,0.187-0.025c0.042-0.02,0.054-0.03,0.079-0.051c0.066-0.06,0.137-0.11,0.375-0.193   c0.27-0.094,0.541-0.082,0.969-0.033c0.133,0.014,0.279,0.029,0.451,0.044c0.418,0.034,0.572,0.146,0.566,0.411   c0,0.018-0.002,0.044,0.002,0.051c0.115,0.081,0.158,0.154,0.182,0.2h0.057c0,0,0,0,0.003,0c0.22,0,0.462,0.097,0.72,0.198   c0.163,0.066,0.332,0.133,0.484,0.175l0.188,0.05c0.256,0.066,0.36,0.094,0.619,0.239c0.064,0.037,0.133,0.065,0.201,0.093   c0.248,0.103,0.557,0.23,0.607,0.681c0.021,0.171-0.031,0.331-0.146,0.461c-0.227,0.255-0.653,0.347-0.883,0.347   c-0.281,0-0.525,0-0.828-0.121c-0.114-0.047-0.188-0.072-0.24-0.072c-0.033,0-0.066,0.01-0.126,0.037   c0.081,0.051,0.212,0.118,0.317,0.169l0.041,0.022c0.355,0.177,0.324,0.467,0.306,0.66c-0.005,0.062-0.013,0.121-0.005,0.164   c0.005,0.022,0.043,0.076,0.316,0.115c-0.006-0.014-0.014-0.025-0.02-0.037c-0.023-0.045-0.023-0.1,0-0.145l0.203-0.367   c0.035-0.068,0.119-0.094,0.188-0.063l0.627,0.267l0.068-0.039c-0.029-0.061-0.062-0.133-0.072-0.197   c-0.019-0.105,0.012-0.25,0.582-0.726c0.154-0.126,0.241-0.163,0.312-0.192c0.038-0.016,0.066-0.027,0.104-0.053   c0.027-0.021,0.033-0.064,0.033-0.097c-0.016-0.017-0.03-0.03-0.038-0.034c-0.024-0.008-0.093-0.03-0.302-0.305   c-0.013-0.016-0.021-0.031-0.026-0.053c-0.009-0.027-0.073-0.292,0.062-0.51c0.075-0.125,0.201-0.207,0.362-0.24   c0.046-0.01,0.094-0.016,0.14-0.016c0.459,0,0.757,0.467,0.77,0.485c0.022,0.034,0.027,0.075,0.018,0.114   c-0.01,0.04-0.036,0.072-0.071,0.093c-0.03,0.017-0.063,0.036-0.091,0.056c0.049,0.047,0.123,0.105,0.19,0.159   c0.031-0.005,0.062-0.012,0.083-0.019c0.001-0.016,0.006-0.035,0.008-0.055c0.016-0.084,0.033-0.186,0.06-0.261   c0.063-0.196,0.937-0.907,1.39-0.966c0.248-0.029,0.361,0.059,0.424,0.133c0.035,0.045,0.061,0.094,0.074,0.142   c0.32-0.146,0.781-0.349,0.876-0.364c0.033-0.006,0.085-0.03,0.134-0.058c-0.021-0.11-0.053-0.236-0.076-0.284   c-0.074-0.021-0.109-0.073-0.109-0.143c0.004-0.119,0.004-0.119,0.628-0.373c0.358-0.143,0.749-0.146,1.059-0.055   c-0.06-0.027-0.12-0.057-0.186-0.088l-0.144-0.063c-0.24-0.11-0.303-0.233-0.373-0.378c-0.096-0.191-0.227-0.407-0.303-0.472   c-0.077-0.062-0.11-0.13-0.137-0.185c-0.025-0.046-0.039-0.075-0.076-0.104c-0.183-0.129-0.214-0.375-0.086-0.658   c0.096-0.209,0.312-0.209,0.383-0.209c0.064,0,0.134,0.008,0.209,0.016c0.07,0.007,0.146,0.016,0.223,0.016   c0.37,0,0.458,0.312,0.496,0.445l0.012,0.042c0.039,0.08,0.443,0.515,0.797,0.796c0.203,0.158,0.26,0.211,0.299,0.244   c0.028,0.025,0.045,0.04,0.104,0.084c0.172,0.129,0.829,0.922,0.966,1.214c0.079,0.176,0.168,0.284,0.355,0.284   c0.136,0,0.313-0.057,0.527-0.168c0.04-0.021,0.04-0.035,0.04-0.045c-0.004-0.387-1.825-1.533-2.301-1.772   c-0.15-0.075-0.628-0.603-0.738-0.767c-0.065-0.101-0.04-0.184-0.021-0.223c0.082-0.156,0.302-0.131,0.406-0.121   c0.074-0.043,0.146-0.096,0.169-0.123c-0.039-0.016-0.079-0.036-0.118-0.059c-0.273-0.154-0.084-0.728-0.081-0.733   c0.022-0.055,0.082-0.122,0.161-0.192c-0.068-0.019-0.143-0.046-0.216-0.078c-0.194-0.09-0.247-0.184-0.301-0.303   c-0.017-0.039-0.034-0.082-0.071-0.135c-0.129-0.182-0.072-0.416-0.033-0.588c0.013-0.045,0.025-0.1,0.025-0.121   c0-0.141,0.115-0.244,0.216-0.336c0.046-0.043,0.099-0.09,0.117-0.123c0.028-0.051,0-0.246-0.008-0.311   c-0.003-0.016-0.004-0.032-0.007-0.046c-0.057-0.034-0.174-0.093-0.259-0.132c-0.325-0.156-0.439-0.217-0.461-0.33   c-0.009-0.039,0.007-0.111,0.03-0.145c0.067-0.094,0.207-0.121,0.382-0.145c0.028-0.006,0.049-0.008,0.064-0.012   c0.026-0.007,0.056-0.01,0.093-0.01l0.125,0.004c0.033,0,0.05-0.003,0.057-0.006c0.115-0.047,0.438-0.177,1.219-0.25   c0.607-0.072,0.977,0.369,1.125,0.688l0.246-0.106c0.068-0.047,0.521-0.344,0.6-0.382c0.002-0.019,0.02-0.154-0.017-0.206   c-0.019-0.025-0.065-0.062-0.108-0.1c-0.129-0.106-0.306-0.251-0.287-0.478c0.008-0.081,0.061-0.22,0.341-0.22   c0.183,0,0.435,0.051,0.637,0.092c0.109,0.023,0.233,0.049,0.273,0.049c0.05,0,0.112-0.004,0.173-0.012   c-0.041-0.043-0.081-0.088-0.118-0.131c-0.093-0.105-0.363-0.279-0.462-0.338c-0.003,0-0.471-0.188-0.812-0.238   c-0.429-0.065-0.37-0.537-0.351-0.692c0.004-0.026,0.006-0.048,0.006-0.062c-0.002-0.009-0.02-0.079,0.063-0.356   c-0.051-0.035-0.12-0.088-0.21-0.162C58.266,4.771,54.202,4.19,50.001,4.19c-2.984,0-5.9,0.297-8.727,0.844   c0.066,0.012,0.14,0.021,0.208,0.031c0.216,0.031,0.486,0.07,0.71,0.135c0.32,0.095,0.395,0.186,0.436,0.354   c0.01,0.038,0.018,0.07,0.044,0.113c0.122,0.209,0.164,0.378-0.04,0.529c-0.146,0.107-0.955,0.275-1.354,0.299   c-0.203,0.008-0.263-0.005-0.322-0.018c-0.066-0.014-0.15-0.033-0.56-0.006c-0.666,0.042-0.907,0.029-1.267,0.008l-0.172-0.008   c-0.351-0.02-0.473-0.232-0.563-0.389c-0.06-0.104-0.096-0.162-0.164-0.185c-0.116-0.034-0.274,0.073-0.366,0.159l0.105,0.229   c0.015,0.033,0.018,0.072,0.006,0.107l-0.098,0.295c-0.062,0.193-0.161,0.272-0.336,0.272c-0.049,0.001-0.109-0.005-0.189-0.007   c-0.09,0-0.178,0.01-0.272,0.028c-0.239,0.05-0.31,0.083-0.427,0.136c-0.109,0.053-0.26,0.121-0.604,0.229   c-0.316,0.101-0.533,0.22-0.785,0.357c-0.287,0.159-0.613,0.339-1.158,0.524c-0.508,0.175-1.052,0.588-1.531,0.952   c-0.461,0.352-0.861,0.655-1.201,0.744L31.201,9.97c-0.142,0.037-0.188,0.051-0.233,0.051c-0.051,0-0.117-0.018-0.162-0.102   c0-0.003-0.027-0.031-0.15-0.07c-0.092-0.029-0.153-0.043-0.192-0.049c-0.014,0.025-0.03,0.045-0.058,0.059   c-0.016,0.01-0.432,0.256-0.664,0.332c-0.119,0.041-0.207,0.088-0.338,0.159c-0.094,0.05-0.208,0.111-0.362,0.187   c-0.349,0.166-0.44,0.061-0.479,0.02c-0.117-0.014-0.162-0.076-0.181-0.113c-0.059-0.119,0.014-0.23,0.155-0.453   c0.044-0.068,0.093-0.145,0.148-0.231c-0.112,0.078-0.232,0.171-0.318,0.235l-0.104,0.077c-0.146,0.11-0.21,0.212-0.277,0.319   c-0.098,0.155-0.209,0.333-0.556,0.505c-0.167,0.083-0.241,0.126-0.298,0.157c-0.131,0.072-0.162,0.09-0.842,0.361   c-0.279,0.111-0.402,0.181-0.453,0.217c0.002,0.001,0.002,0.002,0.002,0.002c0.051,0.046,0.126,0.113,0.146,0.217   c0.049,0.021,0.179,0.033,0.236,0.037c0.138,0.015,0.271,0.025,0.294,0.16c0.022,0.135-0.116,0.2-0.192,0.236   c-0.207,0.097-0.778,0.497-1.236,0.819c-0.473,0.331-0.744,0.52-0.85,0.567c-0.119,0.052-0.174,0.1-0.415,0.316   c-0.124,0.114-0.298,0.271-0.556,0.493c-0.426,0.37-0.429,0.521-0.432,0.665c-0.002,0.101-0.005,0.227-0.104,0.383   c-0.155,0.241-0.216,0.281-0.361,0.341c-0.055,0.022-0.13,0.056-0.25,0.13l-0.143,0.091c-0.246,0.159-0.321,0.202-1.022,0.407   c-0.401,0.118-0.437,0.158-0.454,0.18c-0.06,0.07-0.123,0.123-0.447,0.225c-0.157,0.051-0.279,0.074-0.375,0.074   c-0.209,0-0.313-0.111-0.313-0.33c0-0.004,0-0.007,0-0.01c-0.011-0.007-0.022-0.014-0.034-0.022   c-0.081-0.059-0.201-0.175-0.303-0.329C9.914,24.66,4.19,36.673,4.19,50.001c0,1.666,0.094,3.307,0.268,4.926   c0.211,0.205,0.302,0.404,0.377,0.582c0.039,0.092,0.078,0.18,0.129,0.264c0.109,0.178,0.131,0.398,0.15,0.615   c0.018,0.191,0.033,0.371,0.107,0.488l0.076,0.125c0.074,0.123,0.074,0.123,0.247,0.273l0.054,0.047   c0.166,0.145,0.207,0.211,0.26,0.303c0.033,0.059,0.07,0.121,0.193,0.262c0.176,0.195,0.197,0.215,0.273,0.273   c0.053,0.041,0.125,0.1,0.269,0.23c0.272,0.244,0.38,0.479,0.476,0.684c0.043,0.09,0.083,0.176,0.139,0.268   c0.127,0.199,0.182,0.592,0.254,1.086c0.046,0.307,0.096,0.658,0.17,0.982c0.188,0.826,0.227,1.096,0,2.445   c-0.105,0.641-0.221,0.957-0.309,1.193c-0.092,0.25-0.148,0.402-0.13,0.801c0.009,0.17,0.013,0.312,0.017,0.441   c0,0.018,0.002,0.029,0.002,0.045C13.806,83.55,30.493,95.81,50.001,95.81c22.148,0,40.672-15.801,44.9-36.723   c-0.024-0.006-0.049-0.012-0.068-0.025c-0.006,0.006-0.029,0.018-0.066,0.039c-0.107,0.068-0.193,0.102-0.27,0.102   c-0.207,0-0.262-0.197-0.302-0.34c-0.019-0.061-0.036-0.127-0.064-0.195c-0.073-0.168-0.095-0.287-0.115-0.4   c-0.017-0.102-0.032-0.205-0.09-0.359c-0.051-0.135-0.15-0.287-0.257-0.449c-0.154-0.232-0.33-0.5-0.41-0.799   c-0.077-0.285-0.086-0.496-0.093-0.682c-0.005-0.127-0.008-0.238-0.037-0.35c-0.045-0.176-0.145-0.27-0.251-0.369   c-0.044-0.041-0.086-0.08-0.122-0.121c-0.079-0.09-0.116-0.221-0.155-0.357c-0.043-0.148-0.088-0.301-0.181-0.42   c-0.112-0.141-0.142-0.205-0.151-0.27c-0.002,0.006-0.01-0.004-0.021-0.014c-0.15-0.15-0.214-0.352-0.188-0.613   c0.021-0.262,0.488-0.445,0.766-0.531c0.014-0.004,0.049-0.008,0.064-0.008c0.41,0,0.629,0.592,0.805,1.064   c0.045,0.129,0.084,0.234,0.119,0.305c0.055,0.105,0.082,0.109,0.215,0.127c0.103,0.014,0.242,0.035,0.426,0.119   c0.398,0.18,0.45,0.518,0.5,0.85c0.013,0.078,0.027,0.16,0.043,0.246c0.029,0.137,0.049,0.217,0.062,0.277   c0.036,0.145,0.049,0.201,0.088,0.564c0.018,0.17,0.035,0.293,0.049,0.395c0.021,0.154,0.033,0.271,0.031,0.402   c0.377-2.369,0.582-4.797,0.582-7.273C95.81,44.228,94.727,38.706,92.769,33.614z M51.021,40.323   c0.008-0.017,0.021-0.039,0.023-0.048c-0.018-0.065,0.011-0.128,0.037-0.165c0.065-0.092,0.183-0.119,0.289-0.136   c0.108-0.011,0.121-0.019,0.331-0.119l0.106-0.049c0.112-0.054,0.225-0.079,0.334-0.079c0.195,0,0.316,0.083,0.328,0.093   c0.049,0.035,0.073,0.097,0.057,0.154c-0.01,0.044-0.041,0.081-0.079,0.099c-0.017,0.088-0.036,0.18-0.106,0.281   c-0.078,0.111-0.104,0.148-0.184,0.148c-0.005,0-0.011,0-0.016-0.001c-0.02,0.015-0.035,0.027-0.049,0.041   c-0.047,0.039-0.097,0.077-0.173,0.119c-0.117,0.062-0.208,0.109-0.353,0.109c-0.024,0-0.052-0.001-0.082-0.004   c-0.106-0.013-0.161-0.039-0.203-0.06c-0.032-0.016-0.051-0.025-0.108-0.031c-0.109-0.011-0.158-0.062-0.183-0.105   C50.938,40.476,50.989,40.386,51.021,40.323z M44.999,39.724c0.059-0.027,0.125-0.058,0.158-0.084   c0.152-0.119,0.346-0.064,0.59,0.044c0.095,0.044,0.207,0.093,0.338,0.136c0.148,0.046,0.205,0.047,0.293,0.02   c0.072-0.022,0.163-0.055,0.346-0.025c0.031,0,0.454,0.023,0.701,0.186c0.067,0.044,0.172,0.112,0.154,0.229   c-0.018,0.111-0.118,0.141-0.185,0.162c-0.06,0.018-0.132,0.041-0.2,0.091c-0.104,0.077-0.18,0.11-0.261,0.11   c-0.048,0-0.083-0.013-0.11-0.02c-0.035-0.013-0.055-0.018-0.096-0.01c-0.063,0.014-0.112,0.031-0.158,0.047   c-0.091,0.033-0.189,0.068-0.351,0.068c-0.024,0-0.052,0-0.079-0.001c-0.202-0.014-0.457-0.126-0.727-0.251   c-0.144-0.062-0.293-0.127-0.437-0.182c-0.081-0.029-0.253-0.091-0.259-0.244C44.714,39.853,44.858,39.786,44.999,39.724z    M38.285,37.463l0.019-0.05c0.078-0.227,0.14-0.406,0.477-0.406c0.049,0,0.105,0.003,0.173,0.012   c0.183,0.01,0.32-0.008,0.423-0.022c0.165-0.024,0.271-0.024,0.361,0.032c0.075,0.051,0.127,0.104,0.16,0.137   c0.006,0.008,0.012,0.016,0.018,0.02c0.062,0.012,0.145,0.049,0.242,0.11c0.044,0.028,0.069,0.075,0.069,0.124v0.369   c0,0.077,0.005,0.158,0.01,0.235c0.005,0.112,0.009,0.194,0.005,0.257c0.021,0.008,0.041,0.02,0.053,0.021   c0.047,0.021,0.155,0.068,0.129,0.188c-0.014,0.066-0.074,0.117-0.145,0.117c-0.033,0-0.035,0-0.479-0.125   c-0.755-0.215-0.846-0.264-1.012-0.389l-0.045-0.033c-0.039-0.027-0.095-0.05-0.154-0.072   C38.452,37.933,38.159,37.819,38.285,37.463z M36.954,33.787c0.047-0.104,0.104-0.237,0.11-0.3c0.022-0.195,0.071-0.27,0.16-0.346   c0.052-0.031,0.153-0.088,0.245-0.088c0.117,0,0.201,0.084,0.201,0.199c0,0.021,0.008,0.054,0.014,0.092   c0.032,0.164,0.086,0.441-0.02,0.824c-0.085,0.305-0.285,0.338-0.366,0.338c-0.228,0-0.457-0.221-0.457-0.378   C36.842,34.048,36.884,33.951,36.954,33.787z M36.425,35.267c0.096-0.346,0.231-0.577,0.234-0.588   c0.021-0.033,0.055-0.059,0.092-0.068c0.02-0.006,0.318-0.049,0.564-0.002c0.076,0.016,0.186,0.049,0.241,0.144   c0.06,0.101,0.026,0.208,0,0.292c-0.015,0.049-0.03,0.096-0.034,0.146c-0.021,0.259-0.041,0.456-0.105,0.585   c-0.08,0.166-0.425,0.402-0.75,0.516c-0.066,0.023-0.119,0.033-0.166,0.033c-0.102,0-0.154-0.051-0.178-0.08   c-0.068-0.092-0.04-0.203-0.021-0.276C36.276,35.856,36.353,35.522,36.425,35.267z M32.235,35.007   c0.008-0.039,0.016-0.095,0.012-0.118c-0.01-0.06,0.004-0.118,0.036-0.163c0.068-0.094,0.191-0.113,0.301-0.129   c0.024-0.004,0.05-0.009,0.068-0.013l0.102-0.003c0.054,0.004,0.229,0.02,0.271,0.007c0.017-0.005,0.057-0.011,0.074-0.011   c0.064,0,0.123,0.033,0.156,0.088c0.021,0.033,0.031,0.073,0.031,0.118c0,0.075-0.041,0.266-0.161,0.31   c-0.011,0.008-0.022,0.02-0.038,0.031c-0.092,0.079-0.235,0.201-0.386,0.201c-0.058-0.006-0.081-0.008-0.101-0.008   c-0.035,0-0.066,0.003-0.093,0.006c-0.029,0.003-0.055,0.006-0.077,0.006c-0.032,0-0.06-0.004-0.088-0.012   C32.193,35.267,32.221,35.099,32.235,35.007z M55.118,11.838c0.354-0.376,0.495-0.446,0.645-0.522   c0.038-0.019,0.076-0.038,0.119-0.064c0.063-0.038,0.145-0.059,0.236-0.059c0.137,0,0.324,0.048,0.439,0.184   c0.076,0.091,0.107,0.201,0.086,0.318c-0.043,0.266-0.118,0.33-0.279,0.416c-0.033,0.019-0.077,0.041-0.126,0.074   c-0.156,0.104-0.229,0.35-0.279,0.938c-0.032,0.393,0.067,0.622,0.134,0.774c0.027,0.065,0.053,0.12,0.061,0.177   c0.035,0.043,0.315,0.175,0.421,0.225c0.127,0.06,0.169,0.081,0.199,0.111c0.052,0.05,0.168,0.184,0.123,0.32   c-0.017,0.047-0.063,0.131-0.204,0.151c-0.049,0.007-0.115,0.022-0.191,0.038c-0.156,0.035-0.334,0.074-0.459,0.074   c-0.056,0-0.1-0.008-0.137-0.022c-0.072-0.028-0.118-0.067-0.156-0.099c-0.044-0.035-0.066-0.056-0.129-0.064l-0.064-0.009   c-0.214-0.026-0.66-0.081-0.87-0.398c-0.169-0.251-0.169-0.544-0.167-0.882c0-0.12,0-0.252-0.006-0.396   C54.483,12.509,54.683,12.298,55.118,11.838z M46.685,10.998c0.012-0.112,0.022-0.241,0.029-0.396   c0.014-0.285,0.139-0.346,0.243-0.346c0.107,0,0.204,0.074,0.325,0.168c0.115,0.088,0.256,0.195,0.389,0.217l0.48,0.049   c0.002,0,0.006,0,0.006,0c-0.033-0.068-0.053-0.15-0.046-0.256c0.009-0.128,0.021-0.301,0.179-0.301   c0.041,0,0.071,0.012,0.096,0.031c0.014-0.012,0.031-0.02,0.047-0.025c0.038-0.015,0.082-0.01,0.117,0.012   c0.004,0.002,0.293,0.16,0.763,0.318c0.313,0.106,0.37,0.125,0.36,0.25c-0.004,0.066-0.082,0.133-0.148,0.144   c-0.002,0-0.004,0-0.007,0c-0.055,0.138-0.219,0.224-0.437,0.224c-0.08,0-0.164-0.014-0.246-0.035   c-0.039-0.01-0.078-0.02-0.115-0.028c-0.068-0.016-0.145-0.036-0.222-0.062c-0.003,0.101-0.058,0.195-0.123,0.279   c-0.041,0.051-0.086,0.108-0.099,0.146c-0.056,0.156-0.096,0.217-0.221,0.25c-0.025,0.006-0.049,0.014-0.093,0.037   c-0.02,0.012-0.033,0.02-0.044,0.025c-0.021,0.043-0.061,0.102-0.164,0.217c-0.242,0.266-0.425,0.379-0.612,0.379   c-0.042,0-0.085-0.007-0.126-0.019c-0.197-0.058-0.221-0.22-0.24-0.35c-0.011-0.067-0.021-0.146-0.053-0.232   C46.643,11.476,46.659,11.274,46.685,10.998z M33.772,23.887c-0.061,0.069-0.1,0.101-0.156,0.147   c-0.057,0.045-0.133,0.105-0.273,0.248c-0.197,0.195-0.324,0.267-0.485,0.357c-0.079,0.045-0.173,0.097-0.292,0.176   c-0.438,0.283-0.894,0.434-1.32,0.434c-0.044,0-0.088-0.002-0.133-0.005c-0.162-0.011-0.324-0.04-0.379-0.171   c-0.06-0.133,0.033-0.25,0.125-0.361c0.048-0.061,0.101-0.127,0.131-0.192c0.111-0.239,0.362-0.405,0.549-0.526   c0.054-0.035,0.102-0.066,0.134-0.092c0.069-0.062,0.076-0.072,0.155-0.219c0.033-0.062,0.076-0.145,0.142-0.26   c0.188-0.33,0.462-0.383,0.684-0.428c0.077-0.015,0.15-0.029,0.212-0.056c-0.002,0,0.089-0.063,0.177-0.142   c0.049-0.042,0.111-0.062,0.188-0.062c0.184,0,0.459,0.137,0.546,0.246C33.891,23.124,33.931,23.703,33.772,23.887z M36.297,16.002   c-0.132,0.067-0.136,0.079-0.154,0.143c-0.014,0.04-0.03,0.089-0.062,0.153c-0.021,0.042-0.034,0.072-0.044,0.1   c-0.05,0.123-0.087,0.175-0.313,0.363c-0.174,0.146-0.174,0.146-0.229,0.146c-0.027,0-0.055-0.008-0.075-0.021   c-0.142,0.016-0.37-0.002-0.625-0.021c-0.1-0.007-0.202-0.015-0.302-0.021c-0.166-0.012-0.223-0.004-0.275,0.004   c-0.078,0.014-0.146,0.024-0.5-0.004l-0.115-0.011c-0.226-0.019-0.278-0.024-0.311-0.114c-0.006-0.002-0.014-0.005-0.021-0.009   c-0.172-0.065-0.238-0.091-0.239-0.197c-0.001-0.04,0.021-0.084,0.054-0.115c-0.086-0.222-0.014-0.325,0.084-0.437   c0.029-0.033,0.068-0.074,0.106-0.132c0.13-0.196,0.312-0.337,0.38-0.388l0.057-0.096c0.08-0.132,0.486-0.512,0.826-0.512   c0.062,0,0.12,0.014,0.171,0.037c0.205,0.094,0.315,0.245,0.39,0.344c0.021,0.029,0.049,0.068,0.062,0.078   c0.057,0.018,0.307,0.09,0.438,0.09c0.145-0.041,0.271-0.043,0.436-0.047c0.092,0,0.199-0.003,0.32-0.014c0.004,0,0.043,0,0.047,0   c0.213,0,0.26,0.133,0.271,0.174C36.722,15.702,36.468,15.916,36.297,16.002z M27.104,14.349c0.088-0.11,0.104-0.15,0.117-0.191   c0.051-0.145,0.102-0.225,0.814-0.787c0.181-0.145,0.377-0.311,0.588-0.491c1.027-0.872,2.436-2.067,4.258-2.413   c0.568-0.109,0.859-0.184,1.009-0.231c-0.06-0.036-0.112-0.086-0.123-0.164c-0.004-0.038-0.003-0.11,0.073-0.179   c0.144-0.127,0.451-0.245,0.775-0.367c0.215-0.082,0.436-0.168,0.542-0.235c0.146-0.092,0.278-0.124,0.419-0.157   c0.152-0.036,0.327-0.079,0.584-0.216c0.232-0.124,0.641-0.374,1.033-0.616c0.691-0.427,0.877-0.535,0.957-0.551   c0.002-0.003,0.035-0.037,0.064-0.064c0.124-0.125,0.333-0.334,0.815-0.539c0.216-0.093,0.412-0.138,0.602-0.138   c0.193,0,0.339,0.047,0.456,0.085c0.068,0.021,0.129,0.041,0.172,0.041c0.088-0.008,0.164-0.027,0.248-0.049   c0.196-0.051,0.454-0.113,0.78-0.077c0.17,0.02,0.299-0.001,0.442-0.022c0.237-0.035,0.565-0.059,0.94,0.014   c0.696,0.135,1.013,0.246,1.052,0.557c0.006,0.06,0.003,0.113,0,0.154c-0.002,0.01-0.002,0.021-0.002,0.031   c0.025,0.005,0.09,0.012,0.19,0.005c0.554-0.028,0.872-0.012,1.033,0.101c0.171,0.119,0.188,0.289,0.175,0.369   c-0.014,0.099-0.093,0.299-0.301,0.357c-0.07,0.021-0.168,0.035-0.262,0.049c0.006,0.004,0.011,0.01,0.016,0.014   c0.156,0.113,0.255,0.188,0.293,0.281c0.002,0.008,0.024,0.027,0.038,0.039c0.041,0.035,0.116,0.104,0.101,0.209   s-0.113,0.164-0.215,0.211c-0.074,0.033-0.135,0.066-0.19,0.097c-0.144,0.078-0.278,0.152-0.579,0.208   c-0.385,0.074-0.444,0.094-0.672,0.208c-0.251,0.124-0.637,0.27-0.652,0.276c-0.35,0.207-0.787,0.479-0.845,0.536   c-0.009,0.019-0.071,0.115-0.519,0.229l-0.805,0.436c-0.029,0.146-0.158,0.391-0.68,0.473l-0.295,0.047   c-0.389,0.057-0.533,0.078-0.729,0.203c-0.211,0.133-0.289,0.158-0.344,0.177c-0.014,0.005-0.024,0.009-0.038,0.014   c-0.022,0.011-0.065,0.021-0.087,0.021c-0.035,0-0.068-0.01-0.1-0.019c-0.098-0.024-0.177,0-0.264,0.168   c-0.233,0.44-0.473,0.627-0.481,0.636c-0.022,0.016-0.046,0.026-0.073,0.029c-0.006,0.001-0.047,0.003-0.053,0.003   c-0.068,0-0.127-0.01-0.176-0.033c-0.1-0.044-0.158-0.132-0.158-0.238l0.004-0.061c-0.026,0.003-0.05,0.005-0.077,0.01   c-0.083,0.014-0.161,0.033-0.231,0.051c0.117,0.065,0.205,0.148,0.18,0.273c-0.043,0.223-0.299,0.309-0.658,0.408   c-0.064,0.018-0.099,0.031-0.121,0.039c-0.031,0.012-0.061,0.022-0.111,0.022c-0.02,0-0.047-0.002-0.096-0.005   c-0.107-0.011-0.328-0.031-0.855-0.051c-0.562-0.022-0.917-0.086-1.176-0.13c-0.295-0.054-0.407-0.077-0.543,0.026   c-0.072,0.055-0.088,0.079-0.088,0.08c-0.018,0.082-0.123,0.123-0.189,0.104c-0.027-0.005-0.114-0.022-0.354-0.025   c-0.331-0.003-0.603-0.028-0.842-0.051c-0.237-0.022-0.438-0.048-0.618-0.029c-0.332,0.022-0.619,0.04-0.997,0.229   c-0.146,0.072-0.223,0.151-0.298,0.228c-0.117,0.115-0.236,0.236-0.52,0.254c-0.046,0.003-0.102,0.014-0.125,0.004   c-0.055,0-0.104-0.002-0.148-0.004c-0.142-0.01-0.215-0.041-0.473,0.186l-0.147,0.127c-0.421,0.371-0.69,0.599-0.904,0.599   c-0.043,0.002-0.153,0.078-0.213,0.118c-0.108,0.074-0.203,0.139-0.298,0.139c-0.067,0-0.126-0.031-0.162-0.087   c-0.026-0.038-0.039-0.087-0.039-0.148c0-0.06-0.013-0.104-0.029-0.156C26.87,14.812,26.851,14.659,27.104,14.349z M17.12,20.13   c0.045-0.013,0.08-0.023,0.102-0.033c0-0.008-0.002-0.018-0.002-0.03c-0.004-0.03-0.009-0.065-0.009-0.108   c0-0.116,0.114-0.291,0.456-0.758l0.064-0.088c0.075-0.105,0.067-0.127,0.031-0.205c-0.023-0.058-0.061-0.137-0.061-0.248   c0-0.196,0.053-0.316,0.106-0.442c0.017-0.038,0.033-0.077,0.05-0.124c0.071-0.188,0.268-0.258,0.457-0.326   c0.093-0.035,0.189-0.069,0.268-0.116c0.059-0.034,0.123-0.087,0.193-0.145c0.232-0.187,0.572-0.437,0.971-0.416   c0.131,0.009,0.219,0.056,0.262,0.138c0.069,0.127-0.007,0.264-0.07,0.371c-0.02,0.033-0.051,0.09-0.055,0.11   c0,0.192-0.178,0.249-0.275,0.278c-0.047,0.016-0.095,0.029-0.121,0.051c-0.041,0.043-0.068,0.271-0.083,0.393   c-0.013,0.092-0.022,0.182-0.038,0.258c-0.014,0.074-0.02,0.121-0.023,0.158c-0.012,0.102-0.021,0.158-0.113,0.325   c-0.089,0.163-0.154,0.21-0.27,0.288c-0.056,0.037-0.129,0.084-0.232,0.17c-0.114,0.098-0.152,0.14-0.188,0.18   c-0.055,0.064-0.107,0.126-0.355,0.316c-0.299,0.227-0.359,0.246-0.547,0.248c-0.061,0.002-0.143,0.004-0.279,0.023   c-0.152,0.023-0.216,0.033-0.227,0.033c-0.074,0-0.139-0.053-0.149-0.125C16.974,20.233,17.052,20.152,17.12,20.13z M65.576,78.087   c-0.077,0.412-0.181,0.43-0.237,0.439c-0.041,0.008-0.08,0.008-0.109,0.008c-0.041,0.113-0.102,0.311-0.178,0.568   c-0.131,0.445-2.327,4.92-2.777,5.248c-0.187,0.135-0.248,0.168-0.316,0.168c-0.041,0-0.09-0.02-0.117-0.051   c-0.008-0.01-0.017-0.018-0.021-0.029c-0.043,0.023-0.096,0.057-0.145,0.086c-0.088,0.055-0.192,0.121-0.312,0.174   c-0.123,0.051-0.223,0.074-0.332,0.074c-0.08,0-0.171-0.014-0.291-0.031c-0.062-0.012-0.137-0.021-0.227-0.035   c-0.307-0.039-0.416-0.113-0.504-0.17c-0.037-0.023-0.063-0.041-0.107-0.055c-0.203-0.062-0.232-0.24-0.25-0.361   c-0.008-0.061-0.018-0.123-0.043-0.178c-0.055-0.123-0.072-0.215,0.01-0.314c0.008-0.006,0.014-0.02,0.014-0.059   c0-0.053,0-0.104-0.004-0.117c0,0.002,0,0.002,0,0.002c-0.002,0-0.011-0.01-0.02-0.02c-0.022-0.023-0.053-0.059-0.092-0.105   c-0.152-0.193-0.109-0.359-0.067-0.508c0.014-0.047,0.027-0.098,0.036-0.156c0.021-0.133,0.035-0.227,0.154-0.246   c-0.002-0.004,0.02-0.025,0.056-0.078c0.224-0.314,0.459-0.566,0.763-0.816c0.151-0.129,0.109-0.254-0.048-0.492   c-0.023-0.035-0.046-0.068-0.062-0.098c-0.105-0.189-0.222-0.541-0.222-0.861c0-0.301,0.077-0.373,0.397-0.674   c0.076-0.07,0.166-0.154,0.273-0.26c0.263-0.254,0.4-0.342,0.529-0.342c0.076,0,0.13,0.031,0.161,0.055   c0.027,0.014,0.028,0.014,0.04,0.014c0.25-0.057,0.305-0.111,0.408-0.219l0.055-0.059c0.126-0.125,0.383-0.283,0.553-0.389   c0.049-0.029,0.09-0.053,0.113-0.07c0.04-0.027,0.113-0.072,0.193-0.121c0.133-0.084,0.315-0.195,0.367-0.238   c0.059-0.047,0.189-0.287,0.203-0.385c0.023-0.16,0.169-0.348,0.195-0.385c0.018-0.018,0.037-0.033,0.061-0.043   c0.247-0.104,0.525-0.223,0.566-0.246c0.033-0.027,0.117-0.158,0.117-0.205c-0.044-0.246-0.065-0.477,0.035-0.598   c0.077-0.088,0.2-0.104,0.334-0.027C65.81,76.522,65.623,77.835,65.576,78.087z"/><path d="M48.737,33.603c-0.043,0.064-0.092,0.102-0.127,0.133c-0.043,0.035-0.071,0.057-0.102,0.121l-0.035,0.078   c-0.06,0.125-0.084,0.186-0.066,0.271c0.018,0.07,0.005,0.139-0.006,0.196c-0.023,0.133-0.041,0.238,0.266,0.407   c0.188,0.103,0.326,0.188,0.439,0.257c0.203,0.128,0.307,0.191,0.474,0.224c0.054,0.008,0.106,0.022,0.149,0.053l0.242-0.053   c0.168-0.035,0.279-0.055,0.359-0.068c0.174-0.029,0.174-0.029,0.387-0.16l0.045-0.027c0.082-0.053,0.094-0.078,0.094-0.08   c-0.019-0.256,0.213-0.289,0.477-0.328c0.223-0.031,0.363-0.065,0.473-0.092c0.205-0.053,0.347-0.08,0.68-0.018   c0.424,0.08,0.582,0.148,0.872,0.271l0.205,0.088c0.394,0.164,0.8,0.265,1.147,0.282l0.09,0.006   c0.158,0.007,0.159,0.008,0.279-0.006l0.402-0.047c0.104-0.012,0.18-0.02,0.36-0.044c0.149-0.018,0.586-0.283,0.675-0.571   c0.025-0.076,0.04-0.196-0.11-0.331c-0.472-0.423-0.515-0.44-0.724-0.524l-0.096-0.038c-0.32-0.13-0.73-0.336-1.06-0.501   c-0.073-0.035-0.15-0.068-0.231-0.102c-0.318-0.139-0.68-0.292-0.68-0.619c0-0.033-0.004-0.047-0.004-0.047   c-0.077-0.008-0.105-0.064-0.115-0.105c-0.02-0.1,0.033-0.143,0.175-0.256c0.257-0.205,0.295-0.408,0.295-0.511   c0-0.073,0.024-0.144,0.044-0.206c0.006-0.016,0.012-0.034,0.018-0.053l-0.08,0.002c-0.14,0-0.231-0.025-0.293-0.043   c-0.016-0.006-0.039-0.012-0.047-0.012c-0.102,0.115-0.322,0.195-0.598,0.289c-0.077,0.026-0.143,0.047-0.175,0.062   c-0.028,0.015-0.069,0.03-0.112,0.044c-0.004,0.001-0.009,0.003-0.014,0.004c0.134,0.107,0.213,0.193,0.289,0.277   c0.03,0.033,0.062,0.066,0.098,0.102c0.016,0.018,0.055,0.029,0.086,0.039c0.055,0.018,0.156,0.049,0.172,0.16   c0.016,0.125-0.092,0.197-0.268,0.307c-0.194,0.121-0.38,0.191-0.544,0.253c-0.157,0.06-0.292,0.111-0.366,0.187   c-0.044,0.042-0.072,0.078-0.096,0.107c-0.047,0.06-0.1,0.127-0.197,0.127c-0.101,0-0.169-0.076-0.234-0.148   c-0.096-0.107-0.129-0.219-0.153-0.299c-0.028-0.094-0.036-0.095-0.054-0.101c-0.004-0.002-0.113-0.003-0.209,0.005   c-0.059,0.006-0.115,0.011-0.164,0.011s-0.195,0-0.246-0.128c-0.049-0.133,0.066-0.246,0.179-0.342   c0.106-0.094,0.195-0.155,0.265-0.199c-0.038-0.018-0.084-0.044-0.143-0.084c-0.115-0.08-0.174-0.193-0.224-0.295   c-0.087-0.176-0.134-0.232-0.339-0.213c-0.117,0.012-0.558,0.277-0.611,0.464c-0.021,0.075-0.039,0.145-0.056,0.207   c-0.046,0.175-0.073,0.28-0.128,0.345c-0.012,0.014-0.027,0.038-0.043,0.064c-0.061,0.092-0.133,0.205-0.225,0.261   c-0.056,0.033-0.145,0.066-0.227,0.097c-0.051,0.018-0.096,0.033-0.119,0.047l-0.039,0.024c-0.023,0.015-0.089,0.052-0.1,0.073   c0.006,0,0.012,0.021,0.018,0.044c0.029,0.114,0.074,0.304-0.069,0.419C48.87,33.435,48.794,33.517,48.737,33.603z"/><path d="M40.835,34.424c0.041,0.048,0.07,0.081,0.079,0.093c0.051,0.047,0.517,0.34,0.935,0.588l0.823,0.458   c0.021,0.013,0.039,0.028,0.052,0.051c0.023-0.144,0.092-0.274,0.139-0.362c0.02-0.037,0.047-0.089,0.051-0.105   c-0.002-0.033,0.007-0.093,0.017-0.158c0.015-0.115,0.036-0.26,0.005-0.383c-0.015-0.062-0.055-0.093-0.142-0.15   c-0.081-0.055-0.179-0.121-0.261-0.244l-0.06-0.092c-0.126-0.199-0.284-0.445-0.521-0.511c-0.229-0.063-0.37-0.137-0.506-0.208   c-0.07-0.037-0.141-0.074-0.229-0.111c-0.248-0.105-0.401-0.465-0.513-0.728c-0.028-0.069-0.053-0.127-0.073-0.163   c-0.046-0.084-0.081-0.168-0.108-0.238c-0.017-0.045-0.041-0.103-0.052-0.117l-0.049-0.051c-0.072-0.079-0.21-0.227-0.323-0.291   c-0.003,0-0.005,0-0.01,0c-0.069,0-0.151,0.045-0.231,0.092c-0.075,0.043-0.158,0.086-0.239,0.118   c-0.006,0.005-0.022,0.039-0.017,0.118c0.011,0.195,0.15,0.486,0.36,0.637c0.456,0.327,0.343,0.667,0.267,0.891   C40.222,33.622,40.28,33.799,40.835,34.424z"/><path d="M49.999,0.811C22.875,0.811,0.809,22.877,0.809,50s22.066,49.189,49.19,49.189c27.125,0,49.192-22.066,49.192-49.189   S77.124,0.811,49.999,0.811z M49.999,97.189c-26.021,0-47.19-21.169-47.19-47.189s21.17-47.189,47.19-47.189   c26.021,0,47.192,21.169,47.192,47.189S76.021,97.189,49.999,97.189z"/></g><text x="0" y="115" fill="#000000" font-size="5px" font-weight="bold" font-family="'Helvetica Neue', Helvetica, Arial-Unicode, Arial, Sans-serif">Created by Randomhero</text><text x="0" y="120" fill="#000000" font-size="5px" font-weight="bold" font-family="'Helvetica Neue', Helvetica, Arial-Unicode, Arial, Sans-serif">from the Noun Project</text></svg>