<svg xmlns="http://www.w3.org/2000/svg" xmlns:xlink="http://www.w3.org/1999/xlink" version="1.1" x="0px" y="0px" viewBox="0 0 100 125" enable-background="new 0 0 100 100" xml:space="preserve"><g><path d="M40.718,34.454v-21.07h17.567v21.07L97,49.945v40.331H60.932V60.589H38.064v29.687H2V49.945L40.718,34.454z M25.762,60.589   H13.887v16.88h11.875V60.589z M84.888,60.589H73.013v16.88h11.875V60.589z M49.095,16.721h-7.148V33.93l7.553-3.027l7.527,3.027   V16.721H50.08v0.035c3.013,0.381,3.591,3.767,3.591,6.215c0,2.608,2.086,0.528,2.086,2.087c0,1.566,1.433,1.761,0,1.761   c-1.436,0-3.324,0-3.324,0c0,0.502-0.407,0.914-0.912,0.914c-0.503,0-0.913-0.411-0.913-0.914c0,0-5.93,0-7.364,0   c-1.434,0,0-0.195,0-1.761c0-1.559,2.083,0.521,2.083-2.087c0-2.496,0.603-5.963,3.768-6.233V16.721z M53.634,40.804   c0-2.283-1.851-4.134-4.134-4.134s-4.134,1.851-4.134,4.134v9.168h8.249v-9.168"/></g><text x="0" y="115" fill="#000000" font-size="5px" font-weight="bold" font-family="'Helvetica Neue', Helvetica, Arial-Unicode, Arial, Sans-serif">Created by JAW</text><text x="0" y="120" fill="#000000" font-size="5px" font-weight="bold" font-family="'Helvetica Neue', Helvetica, Arial-Unicode, Arial, Sans-serif">from the Noun Project</text></svg>